<svg width="197" height="66" viewBox="0 0 197 66" fill="none" xmlns="http://www.w3.org/2000/svg">
<rect width="197" height="66" fill="#E5E5E5"/>
<g clip-path="url(#clip0_0_1)">
<rect width="1440" height="3959" transform="translate(-985 -3653)" fill="white"/>
<g opacity="0.4">
<g opacity="0.8" filter="url(#filter0_f_0_1)">
<ellipse rx="239.472" ry="248.432" transform="matrix(-1 0 0 1 540.472 373.144)" fill="#D5AEE4"/>
</g>
</g>
<g filter="url(#filter1_d_0_1)">
<path fill-rule="evenodd" clip-rule="evenodd" d="M166.5 51.7122C177.822 51.7122 187 42.534 187 31.2122C187 19.8903 177.822 10.7122 166.5 10.7122C155.178 10.7122 146 19.8903 146 31.2122C146 42.534 155.178 51.7122 166.5 51.7122Z" fill="white"/>
</g>
<path d="M175 27.2763C174.405 27.4927 173.771 27.6362 173.11 27.7058C173.79 27.3692 174.309 26.8401 174.553 26.2023C173.919 26.5158 173.219 26.7372 172.473 26.8608C171.871 26.3292 171.013 26 170.077 26C168.261 26 166.799 27.2224 166.799 28.7209C166.799 28.9365 166.821 29.1438 166.875 29.3412C164.148 29.2309 161.735 28.147 160.114 26.4959C159.831 26.9031 159.665 27.3692 159.665 27.8709C159.665 28.8129 160.25 29.648 161.122 30.1315C160.595 30.1232 160.078 29.9963 159.64 29.7965C159.64 29.8048 159.64 29.8156 159.64 29.8263C159.64 31.1482 160.777 32.2462 162.268 32.4991C162.001 32.5597 161.71 32.5887 161.408 32.5887C161.198 32.5887 160.986 32.5788 160.787 32.5423C161.212 33.6195 162.418 34.4115 163.852 34.4372C162.736 35.1612 161.319 35.5974 159.785 35.5974C159.516 35.5974 159.258 35.5874 159 35.56C160.453 36.3371 162.175 36.7808 164.032 36.7808C170.068 36.7808 173.368 32.6343 173.368 29.0402C173.368 28.9199 173.363 28.8038 173.356 28.6886C174.007 28.3054 174.554 27.8269 175 27.2763Z" fill="#080809"/>
<g filter="url(#filter2_d_0_1)">
<g filter="url(#filter3_d_0_1)">
<path fill-rule="evenodd" clip-rule="evenodd" d="M30.5 49.7122C41.8218 49.7122 51 40.534 51 29.2122C51 17.8903 41.8218 8.71216 30.5 8.71216C19.1782 8.71216 10 17.8903 10 29.2122C10 40.534 19.1782 49.7122 30.5 49.7122Z" fill="white"/>
</g>
<path fill-rule="evenodd" clip-rule="evenodd" d="M33.1084 26.9566C32.7883 26.8554 32.4202 26.7879 32.0842 26.7879C31.6681 26.7879 30.7719 27.0747 30.7719 27.6316V28.9648H32.9003V31.2093H30.7719V37.4026H28.6275V31.2093H27.5713V28.9648H28.6275V27.8342C28.6275 26.1297 29.3636 24.7122 31.14 24.7122C31.7481 24.7122 32.8363 24.7459 33.4284 24.9653L33.1084 26.9566Z" fill="#080809"/>
</g>
<g filter="url(#filter4_d_0_1)">
<path fill-rule="evenodd" clip-rule="evenodd" d="M98.5 53.7122C110.926 53.7122 121 43.6386 121 31.2122C121 18.7858 110.926 8.71216 98.5 8.71216C86.0736 8.71216 76 18.7858 76 31.2122C76 43.6386 86.0736 53.7122 98.5 53.7122Z" fill="url(#paint0_angular_0_1)"/>
</g>
<g clip-path="url(#clip1_0_1)">
<path d="M104.656 22.7122H93.3438C92.0516 22.7122 91 23.7637 91 25.0559V36.3684C91 37.6609 92.0516 38.7122 93.3438 38.7122H104.656C105.949 38.7122 107 37.6609 107 36.3684V25.0559C107 23.7637 105.949 22.7122 104.656 22.7122ZM106.062 36.3684C106.062 37.1437 105.432 37.7747 104.656 37.7747H93.3438C92.5684 37.7747 91.9375 37.1437 91.9375 36.3684V25.0559C91.9375 24.2806 92.5684 23.6497 93.3438 23.6497H104.656C105.432 23.6497 106.062 24.2806 106.062 25.0559V36.3684Z" fill="white"/>
<path d="M104.156 24.6184C103.639 24.6184 103.219 25.039 103.219 25.5559C103.219 26.0728 103.639 26.4934 104.156 26.4934C104.673 26.4934 105.094 26.0728 105.094 25.5559C105.094 25.039 104.673 24.6184 104.156 24.6184Z" fill="white"/>
<path d="M99 26.4934C96.6737 26.4934 94.7812 28.3859 94.7812 30.7122C94.7812 33.0384 96.6737 34.9309 99 34.9309C101.326 34.9309 103.219 33.0384 103.219 30.7122C103.219 28.3859 101.326 26.4934 99 26.4934ZM99 33.9934C97.1906 33.9934 95.7188 32.5215 95.7188 30.7122C95.7188 28.9028 97.1906 27.4309 99 27.4309C100.809 27.4309 102.281 28.9028 102.281 30.7122C102.281 32.5215 100.809 33.9934 99 33.9934Z" fill="white"/>
</g>
</g>
<defs>
<filter id="filter0_f_0_1" x="151" y="-25.2878" width="778.945" height="796.864" filterUnits="userSpaceOnUse" color-interpolation-filters="sRGB">
<feFlood flood-opacity="0" result="BackgroundImageFix"/>
<feBlend mode="normal" in="SourceGraphic" in2="BackgroundImageFix" result="shape"/>
<feGaussianBlur stdDeviation="75" result="effect1_foregroundBlur_0_1"/>
</filter>
<filter id="filter1_d_0_1" x="136" y="2.71216" width="61" height="61" filterUnits="userSpaceOnUse" color-interpolation-filters="sRGB">
<feFlood flood-opacity="0" result="BackgroundImageFix"/>
<feColorMatrix in="SourceAlpha" type="matrix" values="0 0 0 0 0 0 0 0 0 0 0 0 0 0 0 0 0 0 127 0" result="hardAlpha"/>
<feOffset dy="2"/>
<feGaussianBlur stdDeviation="5"/>
<feColorMatrix type="matrix" values="0 0 0 0 0 0 0 0 0 0 0 0 0 0 0 0 0 0 0.1 0"/>
<feBlend mode="normal" in2="BackgroundImageFix" result="effect1_dropShadow_0_1"/>
<feBlend mode="normal" in="SourceGraphic" in2="effect1_dropShadow_0_1" result="shape"/>
</filter>
<filter id="filter2_d_0_1" x="6" y="8.71216" width="49" height="49" filterUnits="userSpaceOnUse" color-interpolation-filters="sRGB">
<feFlood flood-opacity="0" result="BackgroundImageFix"/>
<feColorMatrix in="SourceAlpha" type="matrix" values="0 0 0 0 0 0 0 0 0 0 0 0 0 0 0 0 0 0 127 0" result="hardAlpha"/>
<feOffset dy="4"/>
<feGaussianBlur stdDeviation="2"/>
<feComposite in2="hardAlpha" operator="out"/>
<feColorMatrix type="matrix" values="0 0 0 0 0 0 0 0 0 0 0 0 0 0 0 0 0 0 0.25 0"/>
<feBlend mode="normal" in2="BackgroundImageFix" result="effect1_dropShadow_0_1"/>
<feBlend mode="normal" in="SourceGraphic" in2="effect1_dropShadow_0_1" result="shape"/>
</filter>
<filter id="filter3_d_0_1" x="0" y="0.712158" width="61" height="61" filterUnits="userSpaceOnUse" color-interpolation-filters="sRGB">
<feFlood flood-opacity="0" result="BackgroundImageFix"/>
<feColorMatrix in="SourceAlpha" type="matrix" values="0 0 0 0 0 0 0 0 0 0 0 0 0 0 0 0 0 0 127 0" result="hardAlpha"/>
<feOffset dy="2"/>
<feGaussianBlur stdDeviation="5"/>
<feColorMatrix type="matrix" values="0 0 0 0 0 0 0 0 0 0 0 0 0 0 0 0 0 0 0.1 0"/>
<feBlend mode="normal" in2="BackgroundImageFix" result="effect1_dropShadow_0_1"/>
<feBlend mode="normal" in="SourceGraphic" in2="effect1_dropShadow_0_1" result="shape"/>
</filter>
<filter id="filter4_d_0_1" x="66" y="0.712158" width="65" height="65" filterUnits="userSpaceOnUse" color-interpolation-filters="sRGB">
<feFlood flood-opacity="0" result="BackgroundImageFix"/>
<feColorMatrix in="SourceAlpha" type="matrix" values="0 0 0 0 0 0 0 0 0 0 0 0 0 0 0 0 0 0 127 0" result="hardAlpha"/>
<feOffset dy="2"/>
<feGaussianBlur stdDeviation="5"/>
<feColorMatrix type="matrix" values="0 0 0 0 0 0 0 0 0 0 0 0 0 0 0 0 0 0 0.1 0"/>
<feBlend mode="normal" in2="BackgroundImageFix" result="effect1_dropShadow_0_1"/>
<feBlend mode="normal" in="SourceGraphic" in2="effect1_dropShadow_0_1" result="shape"/>
</filter>
<radialGradient id="paint0_angular_0_1" cx="0" cy="0" r="1" gradientUnits="userSpaceOnUse" gradientTransform="translate(98.5 31.2122) rotate(90) scale(0.5)">
<stop stop-color="#B8D2F1"/>
<stop offset="0.166667" stop-color="#F289AA"/>
<stop offset="0.294697" stop-color="#C68BF0"/>
<stop offset="0.427083" stop-color="#D164DA"/>
<stop offset="0.614583" stop-color="#C963E8"/>
<stop offset="0.71875" stop-color="#BFC2E8"/>
<stop offset="0.802083" stop-color="#FFC999"/>
<stop offset="0.875" stop-color="#D0D8C9"/>
<stop offset="0.928149" stop-color="#BAD0F1"/>
<stop offset="0.997133" stop-color="#CED8CB"/>
<stop offset="1" stop-color="white" stop-opacity="0"/>
</radialGradient>
<clipPath id="clip0_0_1">
<rect width="1440" height="3959" fill="white" transform="translate(-985 -3653)"/>
</clipPath>
<clipPath id="clip1_0_1">
<rect width="16" height="16" fill="white" transform="translate(91 22.7122)"/>
</clipPath>
</defs>
</svg>
